<svg width="19" height="16" viewBox="0 0 19 16" fill="none" xmlns="http://www.w3.org/2000/svg">
<path fill-rule="evenodd" clip-rule="evenodd" d="M0 7.99996C0 7.70159 0.118527 7.41544 0.329505 7.20446C0.540484 6.99348 0.826631 6.87496 1.125 6.87496H14.1593L9.3285 2.04646C9.11725 1.83521 8.99858 1.5487 8.99858 1.24996C8.99858 0.951211 9.11725 0.664701 9.3285 0.453457C9.53974 0.242212 9.82625 0.123535 10.125 0.123535C10.4237 0.123535 10.7103 0.242212 10.9215 0.453457L17.6715 7.20346C17.7763 7.30796 17.8594 7.4321 17.9161 7.56878C17.9728 7.70546 18.002 7.85198 18.002 7.99996C18.002 8.14793 17.9728 8.29445 17.9161 8.43113C17.8594 8.56781 17.7763 8.69195 17.6715 8.79646L10.9215 15.5465C10.7103 15.7577 10.4237 15.8764 10.125 15.8764C9.82625 15.8764 9.53974 15.7577 9.3285 15.5465C9.11725 15.3352 8.99858 15.0487 8.99858 14.75C8.99858 14.4512 9.11725 14.1647 9.3285 13.9535L14.1593 9.12496H1.125C0.826631 9.12496 0.540484 9.00643 0.329505 8.79545C0.118527 8.58447 0 8.29833 0 7.99996Z" fill="#EBBA34"/>
</svg>
