<svg width="37" height="28" viewBox="0 0 37 28" fill="none" xmlns="http://www.w3.org/2000/svg">
<path d="M0 4.66667C0 3.42899 0.487275 2.242 1.35463 1.36683C2.22199 0.491665 3.39837 0 4.625 0H32.375C33.6016 0 34.778 0.491665 35.6454 1.36683C36.5127 2.242 37 3.42899 37 4.66667V23.3333C37 24.571 36.5127 25.758 35.6454 26.6332C34.778 27.5083 33.6016 28 32.375 28H4.625C3.39837 28 2.22199 27.5083 1.35463 26.6332C0.487275 25.758 0 24.571 0 23.3333V4.66667ZM4.625 2.33333C4.01169 2.33333 3.42349 2.57917 2.98982 3.01675C2.55614 3.45434 2.3125 4.04783 2.3125 4.66667V5.173L18.5 14.973L34.6875 5.173V4.66667C34.6875 4.04783 34.4439 3.45434 34.0102 3.01675C33.5765 2.57917 32.9883 2.33333 32.375 2.33333H4.625ZM34.6875 7.89367L23.8002 14.4853L34.6875 21.245V7.89367ZM34.6089 23.9377L21.5664 15.8387L18.5 17.6937L15.4336 15.8387L2.39113 23.9353C2.52253 24.4319 2.81273 24.8707 3.21666 25.1838C3.6206 25.4968 4.11566 25.6666 4.625 25.6667H32.375C32.884 25.6667 33.3789 25.4973 33.7828 25.1847C34.1867 24.8721 34.477 24.4338 34.6089 23.9377ZM2.3125 21.245L13.1998 14.4853L2.3125 7.89367V21.245Z" fill="#EBBA34"/>
</svg>
