<svg width="26" height="26" viewBox="0 0 26 26" fill="none" xmlns="http://www.w3.org/2000/svg">
<path d="M25.9998 13.0795C25.9998 5.85479 20.1791 -0.00170898 12.9998 -0.00170898C5.81733 -8.39842e-05 -0.00341797 5.85479 -0.00341797 13.0812C-0.00341797 19.6088 4.75133 25.02 10.9653 26.0015V16.8609H7.66658V13.0812H10.9686V10.1968C10.9686 6.91917 12.9105 5.10892 15.8793 5.10892C17.3028 5.10892 18.7897 5.36404 18.7897 5.36404V8.58154H17.1501C15.5365 8.58154 15.0327 9.59067 15.0327 10.6258V13.0795H18.637L18.0617 16.8593H15.0311V25.9999C21.2451 25.0184 25.9998 19.6072 25.9998 13.0795Z" fill="#EBBA34"/>
</svg>
